<svg class="svg" xmlns="http://www.w3.org/2000/svg" xmlns:xlink="http://www.w3.org/1999/xlink" width="10" height="10"><path d="M7.69411 1.61497C6.9802 0.901067 6.01194 0.5 5.00233 0.5C3.99272 0.5 3.02445 0.901067 2.31055 1.61497C1.59665 2.32888 1.19558 3.29714 1.19558 4.30675C1.19558 5.31636 1.59665 6.28463 2.31055 6.99853L4.67483 9.3673C4.71654 9.40935 4.76615 9.44272 4.82082 9.4655C4.87549 9.48827 4.93413 9.5 4.99336 9.5C5.05258 9.5 5.11122 9.48827 5.16589 9.4655C5.22056 9.44272 5.27018 9.40935 5.31188 9.3673L7.69411 6.9761C8.40503 6.26517 8.80442 5.30094 8.80442 4.29554C8.80442 3.29013 8.40503 2.32591 7.69411 1.61497ZM7.05257 6.33456L5.00233 8.39377L2.95209 6.33456C2.54704 5.92914 2.27128 5.41273 2.15967 4.85062C2.04806 4.28851 2.10561 3.70592 2.32504 3.17651C2.54447 2.6471 2.91594 2.19462 3.39248 1.87629C3.86902 1.55795 4.42924 1.38805 5.00233 1.38805C5.57542 1.38805 6.13564 1.55795 6.61218 1.87629C7.08872 2.19462 7.46018 2.6471 7.67962 3.17651C7.89905 3.70592 7.9566 4.28851 7.84499 4.85062C7.73337 5.41273 7.45762 5.92914 7.05257 6.33456ZM3.65644 2.92946C3.29427 3.29275 3.09089 3.7848 3.09089 4.29778C3.09089 4.81076 3.29427 5.30281 3.65644 5.6661C3.92551 5.93563 4.26819 6.1197 4.64147 6.19521C5.01476 6.27073 5.40204 6.23433 5.75471 6.09057C6.10739 5.94682 6.40976 5.70212 6.62389 5.38716C6.83802 5.07221 6.95438 4.70104 6.95836 4.32021C6.96038 4.06593 6.91139 3.81382 6.8143 3.5788C6.71721 3.34377 6.57398 3.1306 6.39308 2.95189C6.21528 2.77 6.00326 2.62508 5.76923 2.52545C5.5352 2.42582 5.28377 2.37346 5.02943 2.37137C4.77508 2.36929 4.52283 2.41752 4.2872 2.5133C4.05157 2.60908 3.8372 2.75051 3.65644 2.92946ZM5.76051 5.02905C5.5905 5.20165 5.36581 5.30984 5.12486 5.33512C4.88391 5.3604 4.64166 5.3012 4.43953 5.16764C4.23739 5.03408 4.08793 4.83445 4.01669 4.60288C3.94545 4.37132 3.95686 4.1222 4.04897 3.89812C4.14108 3.67404 4.30816 3.48891 4.52166 3.37438C4.73516 3.25985 4.98181 3.22304 5.21944 3.27024C5.45707 3.31744 5.67093 3.44572 5.82445 3.63315C5.97797 3.82057 6.06162 4.0555 6.0611 4.29778C6.05457 4.5747 5.93839 4.83772 5.73808 5.02905H5.76051Z" fill="none" stroke-width="1" stroke="#333333"></path></svg>