<svg width="668" height="200" viewBox="0 0 668 200" fill="none" xmlns="http://www.w3.org/2000/svg">
<path d="M620.806 0H47.5081C45.6389 0 43.9033 0 42.0341 0C40.5655 0 38.9634 0 37.4947 0C34.1569 0.133511 30.8192 0.267023 27.6149 0.934579C24.2772 1.46862 21.2064 2.53672 18.2691 4.00534C15.3319 5.47397 12.6617 7.47664 10.2585 9.87984C7.85526 12.283 5.98607 14.9533 4.38394 17.8905C2.7818 20.9613 1.84724 24.032 1.31319 27.2363C0.779146 30.5741 0.512107 33.7784 0.378596 37.1161C0.378596 38.5848 0.378629 40.1869 0.245117 41.6555C0.245117 43.3912 0.245117 45.2603 0.245117 46.996V153.004C0.245117 154.873 0.245117 156.609 0.245117 158.344C0.245117 159.813 0.245085 161.415 0.378596 162.884C0.512107 166.222 0.645635 169.559 1.31319 172.764C1.84724 176.101 2.91531 179.172 4.38394 182.109C5.85256 185.047 7.85526 187.717 10.2585 190.12C12.6617 192.523 15.3319 194.393 18.2691 195.995C21.3399 197.597 24.4107 198.531 27.6149 199.065C30.9527 199.599 34.2905 199.866 37.4947 200C38.9634 200 40.5655 200 42.0341 200C43.9033 200 45.6389 200 47.5081 200H620.806C622.541 200 624.411 200 626.146 200C627.615 200 629.217 200 630.686 200C634.023 199.866 637.361 199.733 640.565 199.065C643.903 198.531 646.974 197.463 650.045 195.995C652.982 194.526 655.652 192.523 658.055 190.12C660.459 187.85 662.328 185.047 663.93 182.109C665.399 179.172 666.467 175.968 667.001 172.764C667.668 169.426 667.802 166.222 667.935 162.884C667.935 161.415 667.935 159.813 667.935 158.344C667.935 156.609 667.935 154.74 667.935 153.004V47.1295C667.935 45.2603 667.935 43.5247 667.935 41.789C667.935 40.3204 667.935 38.7183 667.935 37.2497C667.802 33.9119 667.668 30.5741 667.001 27.3698C666.467 24.032 665.399 20.9613 663.93 18.024C662.461 15.0868 660.459 12.4166 658.055 10.0134C655.786 7.61015 652.982 5.74099 650.045 4.13885C646.974 2.67023 643.903 1.60214 640.565 1.06809C637.361 0.534045 634.023 0.267023 630.686 0.133511C629.217 0.133511 627.615 0.133511 626.146 0.133511C624.411 0 622.675 0 620.806 0Z" fill="#B6B6B6"/>
<path d="M42.1675 195.994C40.6989 195.994 39.2303 195.994 37.7617 195.994C34.9579 195.861 31.7536 195.727 28.5494 195.193C25.4786 194.659 22.8084 193.724 20.4052 192.523C17.8685 191.188 15.4653 189.585 13.4626 187.449C11.4599 185.447 9.7243 183.177 8.38919 180.507C7.05407 177.97 6.253 175.3 5.71896 172.363C5.0514 169.025 4.91792 165.687 4.91792 163.15C4.91792 162.082 4.78436 158.611 4.78436 158.611V41.7884C4.78436 41.7884 4.78441 38.3172 4.91792 37.3826C4.91792 34.8459 5.18491 31.3746 5.71896 28.1703C6.253 25.0995 7.18758 22.4293 8.38919 19.8926C9.7243 17.3559 11.3264 14.9527 13.4626 12.95C15.4653 10.9473 17.8685 9.21168 20.4052 7.87657C22.9419 6.54146 25.6121 5.74039 28.5494 5.20634C31.8871 4.6723 35.225 4.40527 37.7617 4.40527H42.1675H626.28H630.819C633.356 4.40527 636.694 4.6723 640.031 5.20634C642.969 5.74039 645.639 6.67497 648.309 7.87657C650.846 9.21168 653.115 10.8138 655.252 12.95C657.254 14.9527 658.99 17.2224 660.325 19.8926C661.66 22.4293 662.461 25.0995 662.995 28.0368C663.529 31.1075 663.796 34.3118 663.796 37.3826C663.796 38.7177 663.796 40.3198 663.796 41.7884C663.796 43.6576 663.796 45.3933 663.796 47.1289V153.137C663.796 154.873 663.796 156.742 663.796 158.477C663.796 160.079 663.796 161.548 663.796 163.017C663.663 165.954 663.529 169.158 662.995 172.229C662.461 175.3 661.66 177.97 660.325 180.507C658.99 183.043 657.254 185.447 655.252 187.316C653.249 189.318 650.846 191.054 648.309 192.389C645.772 193.724 643.102 194.525 640.031 195.059C636.827 195.594 633.623 195.727 630.819 195.861C629.35 195.861 627.882 195.861 626.413 195.861H621.073L42.1675 195.994Z" fill="black"/>
<path d="M248.176 135.247H224.678L218.937 150.867H208.656L231.62 92.2559H241.367L264.865 150.867H254.05L248.176 135.247ZM227.615 127.236H245.105L238.83 110.413C238.029 108.144 237.094 105.473 236.293 102.67C235.492 105.206 234.691 107.743 233.89 110.28L227.615 127.236Z" fill="white"/>
<path d="M269.003 117.89C269.003 114.686 268.87 111.081 268.736 107.209H278.082C278.483 109.078 278.616 110.814 278.75 112.683C282.622 108.411 287.028 106.274 292.101 106.274C295.038 106.274 297.708 106.942 300.245 108.411C302.782 109.879 304.784 112.149 306.253 115.353C307.722 118.557 308.523 122.563 308.523 127.369C308.523 132.443 307.588 136.849 305.853 140.453C304.117 144.058 301.714 146.862 298.509 148.598C295.439 150.467 291.834 151.401 287.695 151.401C284.758 151.401 281.821 150.867 278.883 149.933V168.224L268.87 169.025V117.89H269.003ZM295.305 140.186C297.308 137.516 298.376 133.511 298.376 128.17C298.376 123.23 297.575 119.759 295.839 117.623C294.104 115.487 291.967 114.285 289.164 114.285C287.161 114.285 285.425 114.686 283.823 115.62C282.221 116.555 280.619 117.756 279.15 119.359V142.723C280.085 143.257 281.287 143.658 282.622 143.925C283.957 144.192 285.292 144.325 286.493 144.325C290.232 144.325 293.169 142.99 295.305 140.186Z" fill="white"/>
<path d="M314.531 117.89C314.531 114.686 314.397 111.081 314.264 107.209H323.61C324.01 109.078 324.144 110.814 324.277 112.683C328.149 108.411 332.555 106.274 337.628 106.274C340.566 106.274 343.236 106.942 345.773 108.411C348.309 109.879 350.312 112.149 351.781 115.353C353.249 118.557 354.05 122.563 354.05 127.369C354.05 132.443 353.116 136.849 351.38 140.453C349.645 144.058 347.241 146.862 344.037 148.598C340.966 150.467 337.361 151.401 333.223 151.401C330.285 151.401 327.348 150.867 324.411 149.933V168.224L314.398 169.025V117.89H314.531ZM340.833 140.186C342.835 137.516 343.903 133.511 343.903 128.17C343.903 123.23 343.102 119.759 341.367 117.623C339.631 115.487 337.495 114.285 334.691 114.285C332.689 114.285 330.953 114.686 329.351 115.62C327.749 116.555 326.147 117.756 324.678 119.359V142.723C325.612 143.257 326.814 143.658 328.149 143.925C329.484 144.192 330.819 144.325 332.021 144.325C335.759 144.325 338.83 142.99 340.833 140.186Z" fill="white"/>
<path d="M372.341 148.064C368.069 145.661 364.731 142.323 362.462 137.784C360.192 133.378 358.99 128.037 358.99 122.029C358.99 115.487 360.325 109.88 362.996 105.341C365.666 100.801 369.271 97.3299 373.944 95.0602C378.483 92.7905 383.69 91.5889 389.431 91.5889C392.769 91.5889 395.973 91.9894 399.044 92.657C402.114 93.458 404.918 94.3926 407.588 95.7277L405.052 103.471C399.711 100.935 394.638 99.7331 389.831 99.7331C385.826 99.7331 382.221 100.668 379.15 102.403C376.08 104.139 373.677 106.676 372.074 110.013C370.339 113.351 369.538 117.49 369.538 122.163C369.538 126.302 370.205 130.04 371.54 133.244C372.875 136.449 374.878 138.985 377.682 140.988C380.486 142.857 384.09 143.792 388.363 143.792C390.365 143.792 392.235 143.658 394.237 143.258C396.24 142.857 397.976 142.457 399.711 141.789V129.907H386.227V122.163H409.458V146.863C406.12 148.465 402.648 149.666 398.91 150.467C395.172 151.268 391.567 151.669 387.962 151.669C381.821 151.669 376.747 150.467 372.341 148.064Z" fill="white"/>
<path d="M444.571 150.867C444.17 149.131 444.037 147.262 443.903 145.126C442.301 146.995 440.432 148.464 437.895 149.799C435.492 151.134 432.688 151.668 429.484 151.668C426.947 151.668 424.678 151.134 422.675 150.199C420.672 149.265 418.937 147.796 417.735 145.793C416.533 143.791 415.866 141.387 415.866 138.584C415.866 134.311 417.334 130.974 420.405 128.437C423.476 125.9 428.549 124.699 435.626 124.699C438.296 124.699 440.966 124.832 443.503 125.233V124.432C443.503 120.56 442.702 117.889 441.099 116.287C439.497 114.685 437.094 113.884 434.023 113.884C431.887 113.884 429.618 114.151 427.214 114.819C424.811 115.486 422.675 116.154 420.806 117.088L419.204 109.879C420.939 109.078 423.342 108.277 426.28 107.609C429.217 106.942 432.288 106.541 435.492 106.541C439.23 106.541 442.435 107.075 445.105 108.277C447.775 109.478 449.778 111.347 451.246 114.151C452.715 116.955 453.516 120.693 453.516 125.366V142.723C453.516 144.592 453.65 147.262 453.783 150.867H444.571ZM438.696 142.723C440.832 141.788 442.435 140.453 443.77 138.984V130.84C441.099 130.573 438.83 130.44 437.094 130.44C432.955 130.44 430.152 131.107 428.549 132.442C426.947 133.777 426.146 135.513 426.146 137.783C426.146 139.919 426.68 141.521 427.882 142.589C429.083 143.657 430.552 144.191 432.555 144.191C434.557 144.325 436.56 143.791 438.696 142.723Z" fill="white"/>
<path d="M461.393 140.454V88.9183L471.273 88.1172V138.718C471.273 140.587 471.54 141.922 472.208 142.723C472.875 143.524 473.81 143.925 475.279 143.925C475.946 143.925 476.747 143.791 477.949 143.524L479.15 150.734C478.216 151.135 477.014 151.402 475.679 151.669C474.344 151.936 473.009 152.069 471.807 152.069C464.865 151.669 461.393 147.93 461.393 140.454Z" fill="white"/>
<path d="M486.226 140.454V88.9183L496.106 88.1172V138.718C496.106 140.587 496.373 141.922 497.041 142.723C497.708 143.524 498.643 143.925 500.112 143.925C500.779 143.925 501.58 143.791 502.782 143.524L503.983 150.734C503.049 151.135 501.847 151.402 500.512 151.669C499.177 151.936 497.842 152.069 496.64 152.069C489.698 151.669 486.226 147.93 486.226 140.454Z" fill="white"/>
<path d="M544.838 130.306H516.267C516.667 139.385 521.073 144.058 529.351 144.058C531.353 144.058 533.49 143.791 535.626 143.257C537.762 142.723 539.765 142.055 541.767 141.254L543.903 148.063C538.963 150.467 533.49 151.668 527.482 151.668C522.809 151.668 518.937 150.734 515.733 148.998C512.528 147.262 510.125 144.726 508.523 141.388C506.921 138.05 506.12 134.178 506.12 129.505C506.12 124.699 506.921 120.56 508.656 117.089C510.392 113.618 512.662 110.947 515.733 109.078C518.803 107.209 522.275 106.274 526.28 106.274C530.419 106.274 533.89 107.209 536.56 109.212C539.364 111.081 541.367 113.751 542.702 116.955C544.037 120.16 544.704 123.764 544.704 127.636V130.306H544.838ZM535.092 124.031C534.958 120.56 534.024 117.89 532.421 116.154C530.819 114.419 528.817 113.484 526.146 113.484C523.61 113.484 521.473 114.419 519.871 116.154C518.136 117.89 517.068 120.56 516.534 123.898H535.092V124.031Z" fill="white"/>
<path d="M552.315 118.156C552.315 115.753 552.181 112.148 552.047 107.209H561.393C561.527 108.41 561.66 109.879 561.794 111.614C561.927 113.35 562.061 114.685 562.061 115.753C563.262 113.884 564.331 112.282 565.532 110.947C566.6 109.612 567.935 108.544 569.404 107.743C570.873 106.942 572.608 106.541 574.477 106.541C576.08 106.541 577.281 106.675 578.483 107.075L577.281 115.753C576.347 115.486 575.278 115.353 574.077 115.353C571.674 115.353 569.671 115.887 567.935 117.088C566.2 118.29 564.331 120.293 562.328 122.963V151H552.448V118.156H552.315Z" fill="white"/>
<path d="M584.09 168.758C582.622 168.491 581.42 168.224 580.485 167.823L582.355 160.614C583.022 160.747 583.823 161.014 584.891 161.148C585.959 161.281 586.894 161.415 587.829 161.415C592.234 161.415 595.572 158.611 597.708 152.87L598.376 151.268L582.355 107.342H593.036L601.18 131.909C602.515 136.047 603.316 139.385 603.716 141.521C604.518 138.317 605.319 135.246 606.387 132.042L614.531 107.209H624.544L608.523 151.401C607.054 155.54 605.319 159.011 603.583 161.548C601.847 164.085 599.711 165.954 597.441 167.289C595.038 168.491 592.234 169.158 588.763 169.158C587.161 169.158 585.559 169.025 584.09 168.758Z" fill="white"/>
<path d="M237.495 62.2162V73.2977L232.421 73.6982V66.7556H211.059V73.2977L206.119 73.6982V62.2162H208.523C209.991 59.1454 211.059 55.2736 211.861 50.8677C212.662 46.4619 213.062 41.6555 213.196 36.582H232.822V62.2162H237.495ZM216.667 52.3364C215.999 56.2082 215.065 59.546 213.863 62.2162H227.615V41.1214H218.002C217.869 44.7262 217.468 48.4645 216.667 52.3364Z" fill="white"/>
<path d="M246.841 65.2868C244.571 64.0852 242.969 62.2161 241.767 59.9464C240.566 57.6767 240.032 55.0065 240.032 51.9357C240.032 48.7314 240.699 45.9277 241.901 43.5245C243.102 41.1213 244.972 39.2521 247.241 38.0505C249.644 36.7154 252.315 36.0479 255.519 36.0479C258.59 36.0479 261.126 36.7154 263.396 37.917C265.532 39.1186 267.268 40.9878 268.469 43.2575C269.671 45.5272 270.205 48.1974 270.205 51.1346C270.205 54.3389 269.538 57.1426 268.336 59.5458C267.134 61.9491 265.265 63.8182 262.996 65.0198C260.726 66.3549 257.922 67.0225 254.851 67.0225C251.647 67.156 248.977 66.4884 246.841 65.2868ZM260.325 61.5485C261.794 60.6139 262.862 59.2788 263.663 57.5432C264.331 55.8075 264.731 53.8049 264.731 51.6687C264.731 49.5325 264.464 47.5298 263.797 45.9277C263.129 44.192 262.194 42.8569 260.726 41.9224C259.257 40.8543 257.522 40.4537 255.252 40.4537C253.116 40.4537 251.38 40.9878 249.911 41.9224C248.443 42.9904 247.375 44.3256 246.574 46.0612C245.773 47.7969 245.505 49.666 245.505 51.8022C245.505 53.9384 245.906 55.941 246.574 57.6767C247.241 59.4123 248.309 60.7474 249.778 61.8155C251.246 62.8836 252.982 63.2842 255.118 63.2842C257.121 63.0171 258.857 62.6166 260.325 61.5485Z" fill="white"/>
<path d="M280.886 65.4206C278.616 64.219 277.014 62.4834 275.813 60.2137C274.611 57.944 274.077 55.2738 274.077 52.0695C274.077 48.8652 274.745 45.928 275.946 43.5248C277.148 41.1216 278.883 39.2524 281.153 38.0508C283.423 36.7157 285.959 36.1816 288.897 36.1816C290.499 36.1816 292.101 36.3152 293.57 36.7157C295.038 37.1162 296.373 37.6503 297.708 38.3178L296.373 42.3232C293.837 40.988 291.433 40.3205 289.164 40.3205C287.161 40.3205 285.292 40.721 283.957 41.6556C282.488 42.5902 281.42 43.9253 280.619 45.6609C279.818 47.3966 279.551 49.3993 279.551 51.8025C279.551 54.0722 279.951 55.9413 280.619 57.677C281.287 59.4126 282.488 60.6142 283.957 61.6823C285.425 62.6169 287.295 63.1509 289.564 63.1509C291.967 63.1509 294.371 62.6169 296.907 61.4153L298.109 65.2871C296.774 65.9547 295.439 66.4887 293.97 66.7557C292.502 67.1563 290.899 67.2898 289.03 67.2898C285.826 67.1563 283.156 66.6222 280.886 65.4206Z" fill="white"/>
<path d="M300.379 67.1559C299.845 67.0223 299.444 66.8888 299.044 66.7553L299.578 62.6165C300.112 62.8835 300.646 62.8835 301.18 62.8835C301.714 62.8835 302.248 62.75 302.648 62.3494C303.049 61.9489 303.316 61.4149 303.583 60.7473C303.85 60.0798 304.117 59.0117 304.25 57.8101C305.051 52.8701 305.719 45.794 305.986 36.4482H326.68V66.7553H321.473V41.1211H310.793C310.392 48.9983 309.858 54.8728 309.057 59.0117C308.656 61.0143 308.256 62.6165 307.588 63.8181C306.921 65.0197 306.253 65.9542 305.319 66.4883C304.384 67.0223 303.316 67.2894 301.981 67.2894C301.447 67.2894 300.913 67.2894 300.379 67.1559Z" fill="white"/>
<path d="M334.557 36.582H339.764V66.7556H334.557V36.582Z" fill="white"/>
<path d="M376.346 62.2162V73.2977L371.273 73.6982V66.7556H349.911V73.2977L344.971 73.6982V62.2162H347.375C348.843 59.1454 349.911 55.2736 350.712 50.8677C351.513 46.4619 351.914 41.6555 352.047 36.582H371.674V62.2162H376.346ZM355.519 52.3364C354.851 56.2082 353.917 59.546 352.715 62.2162H366.467V41.1214H356.854C356.72 44.7262 356.32 48.4645 355.519 52.3364Z" fill="white"/>
<path d="M416.667 66.7553H410.792L402.515 53.4042H399.844V66.7553H394.638V53.4042H391.967L383.556 66.7553H377.682L388.229 50.3334L383.289 42.4563C382.889 41.7887 382.354 41.2547 381.954 40.9876C381.553 40.7206 381.019 40.5871 380.352 40.5871C379.818 40.5871 379.284 40.7206 378.75 40.9876L377.682 36.9823C378.616 36.5818 379.684 36.4482 380.886 36.4482C382.354 36.4482 383.556 36.7153 384.491 37.3828C385.425 38.0504 386.226 38.985 387.027 40.3201L392.635 49.3988H394.504V36.9823H399.711V49.3988H401.58L407.188 40.3201C407.989 38.985 408.79 38.0504 409.724 37.3828C410.659 36.7153 411.86 36.4482 413.329 36.4482C414.531 36.4482 415.599 36.5818 416.533 36.9823L415.465 40.9876C414.931 40.7206 414.397 40.5871 413.863 40.5871C413.329 40.5871 412.795 40.7206 412.261 40.9876C411.86 41.2547 411.326 41.7887 410.926 42.4563L405.986 50.3334L416.667 66.7553Z" fill="white"/>
<path d="M444.971 36.582L434.023 59.4125L433.222 60.8811C432.421 62.4832 431.62 63.6848 430.819 64.6194C430.018 65.554 429.217 66.2216 428.282 66.6221C427.348 67.0226 426.28 67.2896 425.078 67.2896C423.743 67.2896 422.675 67.1561 421.874 66.7556L422.408 62.7503C422.942 63.0173 423.609 63.1508 424.411 63.1508C424.945 63.1508 425.479 63.0173 426.013 62.8838C426.413 62.7503 426.947 62.4832 427.348 62.0827C427.748 61.6822 428.149 61.0146 428.549 60.2135L428.95 59.546L416.934 36.582H422.675L431.353 54.4726L439.497 36.582H444.971Z" fill="white"/>
<path d="M469.404 66.7558V50.2004C469.404 48.0642 469.537 45.661 469.671 42.9908L454.45 66.7558H448.71V36.5822H453.516V53.8052C453.516 55.6744 453.516 57.677 453.382 59.9467L468.336 36.5822H474.344V66.7558H469.404ZM457.655 33.912C456.587 33.378 455.652 32.5769 455.118 31.6423C454.584 30.7077 454.183 29.7732 454.05 28.7051H457.788C458.189 30.9748 459.524 32.0429 461.66 32.0429C463.796 32.0429 465.131 30.9748 465.665 28.7051H469.404C469.27 29.7732 468.87 30.7077 468.336 31.6423C467.802 32.5769 466.867 33.2445 465.799 33.912C464.731 34.5796 463.262 34.8466 461.66 34.8466C460.058 34.8466 458.723 34.4461 457.655 33.912Z" fill="white"/>
<path fill-rule="evenodd" clip-rule="evenodd" d="M135.225 36.7158H79.8178C53.6495 36.7158 44.1702 46.3286 44.1702 72.3634V127.771C44.1702 153.939 53.7831 163.418 79.8178 163.418H135.225C161.393 163.418 170.873 153.805 170.873 127.771V72.3634C171.006 46.3286 161.393 36.7158 135.225 36.7158Z" fill="#C8102E"/>
<path d="M69.2706 100.133H72.6083V116.688H69.2706V110.013H61.6605V116.688H58.3227V100.133H61.6605V106.808H69.2706V100.133ZM88.2292 109.612C88.2292 112.282 86.8941 113.751 84.4909 113.751C82.0877 113.751 80.7526 112.282 80.7526 109.479V100.133H77.4148V109.612C77.4148 114.285 79.9515 116.955 84.4909 116.955C89.0303 116.955 91.7005 114.285 91.7005 109.479V100.133H88.3627V109.612H88.2292ZM127.081 111.481L123.343 100.133H120.539L116.801 111.481L113.196 100.133H109.591L115.332 116.688H118.136L121.874 105.74L125.612 116.688H128.416L134.157 100.133H130.686L127.081 111.481ZM140.299 109.612H146.44V106.541H140.299V103.204H149.244V100.133H137.094V116.688H149.644V113.617H140.432V109.612H140.299ZM153.516 116.688H156.854V100.133H153.516V116.688ZM98.2425 113.217L96.7739 116.688H93.3026L100.512 100.133H103.45L110.659 116.688H107.188L105.719 113.217H98.2425ZM99.4442 110.28H104.518L101.981 104.405L99.4442 110.28Z" fill="white"/>
<path d="M107.588 79.0382C95.973 79.0382 86.4937 69.5588 86.4937 57.9434H89.431C89.431 67.9567 97.5751 76.1009 107.588 76.1009C117.602 76.1009 125.746 67.9567 125.746 57.9434H128.683C128.683 69.5588 119.204 79.0382 107.588 79.0382Z" fill="white"/>
</svg>
