<svg width="100" height="100" viewBox="0 0 100 100" fill="none" xmlns="http://www.w3.org/2000/svg">
<g clip-path="url(#clip0_3_8512)">
<rect width="100" height="100" rx="20" fill="white"/>
<path fill-rule="evenodd" clip-rule="evenodd" d="M100 0H0V100H100V0ZM75.9493 63.2475C77.0371 51.928 74.1271 42.0954 68.2347 33.3783C68.2204 33.3494 68.1963 33.3284 68.1669 33.316C64.8415 31.7811 61.2761 30.6504 57.5476 30.0028C57.5142 29.9965 57.4797 30.001 57.449 30.0156C57.4184 30.0302 57.393 30.0542 57.3767 30.0841C56.9182 30.9044 56.4102 31.9747 56.0541 32.8159C52.0439 32.2122 48.0546 32.2122 44.1265 32.8159C43.7704 31.9563 43.2441 30.9044 42.7837 30.0841C42.7485 30.0238 42.6806 29.9923 42.6128 30.0028C38.8863 30.6485 35.3209 31.7791 31.9928 33.316C31.9641 33.3284 31.9394 33.3494 31.9231 33.3763C25.1594 43.5403 23.3065 53.4543 24.2157 63.2456C24.2196 63.2935 24.2463 63.3394 24.2835 63.3683C28.7457 66.6651 33.0689 68.6658 37.3113 69.9927C37.3791 70.0137 37.4509 69.9881 37.4946 69.9323C38.4976 68.5536 39.3924 67.1001 40.1593 65.5718C40.205 65.4819 40.1613 65.3763 40.0693 65.3409C38.6502 64.7995 37.2989 64.1393 35.9991 63.3893C35.8961 63.3289 35.8883 63.1813 35.9828 63.1104C36.2561 62.9043 36.53 62.6898 36.7909 62.4732C36.8385 62.4338 36.9044 62.4253 36.9598 62.4503C45.498 66.3711 54.7419 66.3711 63.1804 62.4503C63.2358 62.4233 63.3017 62.4312 63.3506 62.4712C63.6121 62.6878 63.8854 62.9043 64.1613 63.1104C64.2558 63.1813 64.2493 63.3289 64.1469 63.3893C62.8471 64.1538 61.4958 64.7995 60.0748 65.3382C59.9821 65.3737 59.9411 65.4819 59.9861 65.5718C60.77 67.0982 61.6647 68.5517 62.6495 69.9304C62.6698 69.9587 62.6984 69.9799 62.7312 69.9911C62.7641 70.0023 62.7996 70.0028 62.8328 69.9927C67.0954 68.6658 71.4186 66.6651 75.8808 63.3683C75.9199 63.3394 75.9447 63.2954 75.9493 63.2475ZM41.4343 46.7052C44.0672 46.7052 46.1646 49.1004 46.1235 51.9949C46.1235 54.9098 44.0463 57.2839 41.4343 57.2839C38.8641 57.2839 36.7459 54.9098 36.7459 51.9949C36.7459 49.0794 38.823 46.7052 41.4343 46.7052ZM58.7711 46.7052C61.4032 46.7052 63.5006 49.1004 63.4595 51.9949C63.4595 54.9098 61.4032 57.2839 58.7711 57.2839C56.2002 57.2839 54.0819 54.9098 54.0819 51.9949C54.0819 49.0794 56.1591 46.7052 58.7711 46.7052Z" fill="#5865F2"/>
</g>
<defs>
<clipPath id="clip0_3_8512">
<rect width="100" height="100" rx="20" fill="white"/>
</clipPath>
</defs>
</svg>
