<svg width="151" height="45" viewBox="0 0 151 45" fill="none" xmlns="http://www.w3.org/2000/svg">
<path d="M140.342 0H10.6887C10.2659 0 9.87342 0 9.45071 0C9.11857 0 8.75624 0 8.4241 0C7.66926 0.029994 6.91442 0.059988 6.18976 0.209958C5.43491 0.329934 4.74045 0.569886 4.07619 0.89982C3.41192 1.22975 2.80804 1.67966 2.26455 2.21956C1.72106 2.75945 1.29833 3.35933 0.936006 4.0192C0.573678 4.70906 0.362324 5.39892 0.241548 6.11878C0.120772 6.86863 0.0603806 7.58848 0.0301866 8.33833C0.0301866 8.66827 0.030194 9.0282 0 9.35813C0 9.74805 0 10.168 0 10.5579V34.3731C0 34.793 0 35.183 0 35.5729C0 35.9028 -7.37202e-06 36.2628 0.0301866 36.5927C0.0603806 37.3425 0.0905782 38.0924 0.241548 38.8122C0.362324 39.5621 0.603872 40.252 0.936006 40.9118C1.26814 41.5717 1.72106 42.1716 2.26455 42.7115C2.80804 43.2514 3.41192 43.6713 4.07619 44.0312C4.77065 44.3911 5.46511 44.6011 6.18976 44.7211C6.94461 44.841 7.69945 44.901 8.4241 44.931C8.75624 44.931 9.11857 44.931 9.45071 44.931C9.87342 44.931 10.2659 44.931 10.6887 44.931H140.342C140.734 44.931 141.157 44.931 141.549 44.931C141.881 44.931 142.244 44.931 142.576 44.931C143.331 44.901 144.086 44.871 144.81 44.7211C145.565 44.6011 146.26 44.3611 146.954 44.0312C147.618 43.7013 148.222 43.2514 148.766 42.7115C149.309 42.2016 149.732 41.5717 150.094 40.9118C150.426 40.252 150.668 39.5321 150.789 38.8122C150.94 38.0624 150.97 37.3425 151 36.5927C151 36.2628 151 35.9028 151 35.5729C151 35.183 151 34.7631 151 34.3731V10.5879C151 10.168 151 9.77805 151 9.38812C151 9.05819 151 8.69826 151 8.36833C150.97 7.61848 150.94 6.86863 150.789 6.14877C150.668 5.39892 150.426 4.70906 150.094 4.04919C149.762 3.38932 149.309 2.78944 148.766 2.24955C148.252 1.70966 147.618 1.28974 146.954 0.929814C146.26 0.59988 145.565 0.359928 144.81 0.239952C144.086 0.119976 143.331 0.059988 142.576 0.029994C142.244 0.029994 141.881 0.029994 141.549 0.029994C141.157 0 140.764 0 140.342 0Z" fill="#B6B6B6"/>
<path d="M9.48092 44.0311C9.14879 44.0311 8.81666 44.0311 8.48452 44.0311C7.85045 44.0011 7.12579 43.9712 6.40113 43.8512C5.70667 43.7312 5.1028 43.5212 4.55931 43.2513C3.98562 42.9514 3.44213 42.5914 2.98922 42.1115C2.53631 41.6616 2.14379 41.1517 1.84185 40.5518C1.53991 39.982 1.35875 39.3821 1.23797 38.7222C1.087 37.9724 1.05682 37.2225 1.05682 36.6526C1.05682 36.4127 1.02661 35.6328 1.02661 35.6328V9.38807C1.02661 9.38807 1.02662 8.60822 1.05682 8.39827C1.05682 7.82838 1.1172 7.04854 1.23797 6.32868C1.35875 5.63882 1.57011 5.03894 1.84185 4.46905C2.14379 3.89916 2.50612 3.35927 2.98922 2.90936C3.44213 2.45945 3.98562 2.06953 4.55931 1.76959C5.13299 1.46965 5.73687 1.28969 6.40113 1.16971C7.15598 1.04973 7.91084 0.989746 8.48452 0.989746H9.48092H141.58H142.606C143.18 0.989746 143.935 1.04973 144.689 1.16971C145.354 1.28969 145.958 1.49964 146.562 1.76959C147.135 2.06953 147.649 2.42946 148.132 2.90936C148.585 3.35927 148.977 3.86917 149.279 4.46905C149.581 5.03894 149.762 5.63882 149.883 6.29869C150.004 6.98855 150.064 7.7084 150.064 8.39827C150.064 8.69821 150.064 9.05813 150.064 9.38807C150.064 9.80798 150.064 10.1979 150.064 10.5878V34.4031C150.064 34.793 150.064 35.2129 150.064 35.6028C150.064 35.9628 150.064 36.2927 150.064 36.6226C150.034 37.2825 150.004 38.0023 149.883 38.6922C149.762 39.3821 149.581 39.982 149.279 40.5518C148.977 41.1217 148.585 41.6616 148.132 42.0815C147.679 42.5314 147.135 42.9214 146.562 43.2213C145.988 43.5212 145.384 43.7012 144.689 43.8212C143.965 43.9412 143.24 43.9712 142.606 44.0011C142.274 44.0011 141.942 44.0011 141.61 44.0011H140.402L9.48092 44.0311Z" fill="black"/>
<path d="M120.54 33.8393H122.623V19.9992H120.54V33.8393ZM139.298 24.9847L136.911 30.9851H136.839L134.361 24.9847H132.118L135.834 33.3713L133.715 38.0363H135.888L141.614 24.9847H139.298ZM127.488 32.2673C126.805 32.2673 125.854 31.9291 125.854 31.0919C125.854 30.0237 127.039 29.6141 128.061 29.6141C128.978 29.6141 129.407 29.81 129.964 30.0774C129.802 31.3592 128.69 32.2673 127.488 32.2673V32.2673ZM127.739 24.6819C126.231 24.6819 124.67 25.3409 124.024 26.801L125.872 27.5664C126.267 26.801 127.002 26.5515 127.775 26.5515C128.852 26.5515 129.946 27.1928 129.964 28.3323V28.4746C129.587 28.2609 128.78 27.9405 127.792 27.9405C125.8 27.9405 123.771 29.0264 123.771 31.0564C123.771 32.9082 125.405 34.1013 127.236 34.1013C128.636 34.1013 129.407 33.4781 129.893 32.7482H129.964V33.8164H131.974V28.51C131.974 26.0533 130.126 24.6819 127.739 24.6819V24.6819ZM114.869 26.6695H111.907V21.9254H114.869C116.426 21.9254 117.31 23.2041 117.31 24.2974C117.31 25.37 116.426 26.6695 114.869 26.6695ZM114.815 19.9992H109.825V33.8393H111.907V28.5957H114.815C117.123 28.5957 119.392 26.9381 119.392 24.2974C119.392 21.6568 117.123 19.9992 114.815 19.9992ZM87.6051 32.2699C86.1664 32.2699 84.9618 31.075 84.9618 29.4338C84.9618 27.7754 86.1664 26.5623 87.6051 26.5623C89.0254 26.5623 90.1401 27.7754 90.1401 29.4338C90.1401 31.075 89.0254 32.2699 87.6051 32.2699V32.2699ZM89.9963 25.7597H89.9243C89.457 25.2069 88.5576 24.7075 87.425 24.7075C85.0517 24.7075 82.8763 26.7763 82.8763 29.4338C82.8763 32.0736 85.0517 34.1247 87.425 34.1247C88.5576 34.1247 89.457 33.6252 89.9243 33.0548H89.9963V33.7324C89.9963 35.5341 89.0254 36.4972 87.4612 36.4972C86.1847 36.4972 85.3935 35.5873 85.0695 34.8205L83.2538 35.5696C83.7753 36.8181 85.1598 38.3521 87.4612 38.3521C89.9064 38.3521 91.9741 36.9249 91.9741 33.447V24.9929H89.9963V25.7597ZM93.4124 33.8393H95.498V19.9987H93.4124V33.8393ZM98.5727 29.2734C98.5187 27.454 99.9931 26.5268 101.054 26.5268C101.881 26.5268 102.582 26.9367 102.816 27.5258L98.5727 29.2734ZM105.045 27.7039C104.65 26.6513 103.445 24.7075 100.982 24.7075C98.5365 24.7075 96.505 26.6159 96.505 29.4161C96.505 32.0559 98.5187 34.1247 101.215 34.1247C103.391 34.1247 104.65 32.8048 105.172 32.038L103.553 30.9677C103.014 31.7526 102.276 32.2699 101.215 32.2699C100.155 32.2699 99.3998 31.7882 98.9141 30.8431L105.261 28.2389L105.045 27.7039ZM54.4797 26.1522V28.1498H59.2982C59.1543 29.2734 58.7768 30.0937 58.2013 30.6646C57.5004 31.3604 56.4035 32.1272 54.4797 32.1272C51.5129 32.1272 49.1937 29.7551 49.1937 26.8122C49.1937 23.8693 51.5129 21.4969 54.4797 21.4969C56.08 21.4969 57.2484 22.1213 58.1115 22.9239L59.5319 21.515C58.3273 20.3733 56.7269 19.4993 54.4797 19.4993C50.4161 19.4993 47 22.7812 47 26.8122C47 30.8431 50.4161 34.1247 54.4797 34.1247C56.6734 34.1247 58.3273 33.4116 59.6217 32.0736C60.9523 30.7537 61.366 28.8988 61.366 27.4008C61.366 26.9367 61.3302 26.5091 61.2578 26.1522H54.4797ZM66.8442 32.2699C65.4055 32.2699 64.1648 31.0927 64.1648 29.4161C64.1648 27.7217 65.4055 26.5623 66.8442 26.5623C68.2823 26.5623 69.523 27.7217 69.523 29.4161C69.523 31.0927 68.2823 32.2699 66.8442 32.2699V32.2699ZM66.8442 24.7075C64.2188 24.7075 62.0791 26.6872 62.0791 29.4161C62.0791 32.1272 64.2188 34.1247 66.8442 34.1247C69.469 34.1247 71.6087 32.1272 71.6087 29.4161C71.6087 26.6872 69.469 24.7075 66.8442 24.7075ZM77.2381 32.2699C75.7999 32.2699 74.5591 31.0927 74.5591 29.4161C74.5591 27.7217 75.7999 26.5623 77.2381 26.5623C78.6763 26.5623 79.917 27.7217 79.917 29.4161C79.917 31.0927 78.6763 32.2699 77.2381 32.2699ZM77.2381 24.7075C74.6128 24.7075 72.4736 26.6872 72.4736 29.4161C72.4736 32.1272 74.6128 34.1247 77.2381 34.1247C79.863 34.1247 82.0027 32.1272 82.0027 29.4161C82.0027 26.6872 79.863 24.7075 77.2381 24.7075Z" fill="white"/>
<path d="M49.54 15.2023C49.0896 15.2023 48.6536 15.0626 48.2307 14.7854C47.8079 14.5082 47.5145 14.0947 47.3523 13.5459L48.1719 13.2065C48.2765 13.5684 48.4487 13.8491 48.6899 14.0493C48.9305 14.2501 49.2139 14.3499 49.54 14.3499C49.904 14.3499 50.2174 14.2365 50.4811 14.0108C50.7454 13.7846 50.877 13.5035 50.877 13.1675C50.877 12.8385 50.7418 12.5613 50.4715 12.3351C50.2013 12.1094 49.8773 11.9956 49.5002 11.9956H48.9239V11.1627H49.4318C49.7836 11.1627 50.0749 11.0658 50.3059 10.8725C50.5369 10.6783 50.6525 10.4206 50.6525 10.0971C50.6525 9.79353 50.5405 9.55439 50.3159 9.38002C50.0909 9.20577 49.8119 9.11842 49.4807 9.11842C48.9078 9.11842 48.5207 9.40648 48.3188 9.98074L47.4888 9.63222C47.6182 9.27717 47.8502 8.96054 48.182 8.68288C48.5141 8.40533 48.9466 8.26606 49.4807 8.26606C50.0792 8.26606 50.5775 8.43899 50.9751 8.78452C51.3718 9.13004 51.5701 9.56735 51.5701 10.0971C51.5701 10.7358 51.2707 11.2106 50.6721 11.5207V11.5601C50.9977 11.695 51.2664 11.9022 51.4773 12.1793C51.6892 12.457 51.7947 12.787 51.7947 13.1675C51.7947 13.7557 51.5767 14.2417 51.1408 14.6258C50.7048 15.0099 50.1707 15.2023 49.54 15.2023" fill="white"/>
<path d="M49.5399 15.2023V15.0916C49.1131 15.0912 48.7001 14.9607 48.2921 14.6933C47.8928 14.4308 47.6164 14.0438 47.4594 13.5149L47.3522 13.546L47.3954 13.6481L48.215 13.3086L48.1718 13.2066L48.0646 13.2368C48.1736 13.6152 48.3571 13.918 48.6178 14.1342L48.6187 14.1351L48.6178 14.1342C48.8772 14.3513 49.1911 14.4611 49.5399 14.4607C49.927 14.4616 50.2713 14.3379 50.5543 14.0948C50.8398 13.8522 50.9903 13.533 50.9885 13.1676C50.9903 12.8078 50.835 12.4922 50.5434 12.2504C50.2539 12.0078 49.8999 11.884 49.5001 11.8849H49.0354V11.2735H49.4317C49.804 11.2739 50.1253 11.1692 50.3778 10.9568C50.6337 10.7441 50.7657 10.4461 50.764 10.0972C50.7657 9.76669 50.6354 9.48559 50.3843 9.29318C50.1388 9.10165 49.8315 9.00733 49.4806 9.00777C48.8676 9.00168 48.4195 9.33769 48.2137 9.94449L48.3187 9.9808L48.3623 9.87873L47.5319 9.53021L47.4887 9.63228L47.5933 9.66982C47.7158 9.33514 47.9347 9.03545 48.2537 8.76731L48.2533 8.76775C48.5633 8.50957 48.9657 8.37772 49.4806 8.37683C50.0577 8.37772 50.5246 8.54157 50.9013 8.86805V8.86761C51.2757 9.19587 51.4568 9.59509 51.4584 10.0972C51.4545 10.7004 51.189 11.1233 50.6201 11.423L50.5604 11.4542V11.5602V11.6337L50.6289 11.6623C50.9375 11.7902 51.1881 11.984 51.3882 12.246C51.5844 12.5047 51.6825 12.8069 51.683 13.1676C51.6812 13.7286 51.4803 14.1766 51.0665 14.5433C50.6506 14.9087 50.148 15.0907 49.5399 15.0916V15.2023V15.313C50.1933 15.3139 50.7592 15.1111 51.2148 14.7089C51.6729 14.3067 51.9075 13.783 51.9062 13.1676C51.9066 12.7667 51.7932 12.4099 51.5666 12.1129C51.3438 11.8205 51.0582 11.5999 50.7152 11.4577L50.672 11.5602H50.7836V11.5208H50.672L50.7239 11.619C51.3516 11.2981 51.6856 10.7718 51.6816 10.0972C51.6834 9.54017 51.4676 9.06445 51.0486 8.70155L51.047 8.70033L51.0486 8.7011C50.6297 8.33698 50.1004 8.15497 49.4806 8.15541C48.9277 8.15497 48.4652 8.30066 48.1094 8.59825V8.59869C47.7659 8.88621 47.5205 9.21923 47.3836 9.59464L47.3474 9.69318L48.2756 10.0829L48.385 10.1292L48.4243 10.0171C48.6217 9.47486 48.9474 9.23572 49.4806 9.22963C49.7926 9.23008 50.0437 9.31001 50.247 9.46744C50.4449 9.62321 50.539 9.81994 50.5408 10.0972C50.539 10.3946 50.4401 10.6126 50.2339 10.7878C50.0242 10.9625 49.7635 11.0511 49.4317 11.052H48.9238H48.8122V11.9956V12.1063H49.5001C49.855 12.1072 50.1484 12.2111 50.3995 12.4199C50.6484 12.6301 50.7636 12.8692 50.7653 13.1676C50.7636 13.4747 50.6502 13.7177 50.4082 13.9271C50.1637 14.1359 49.8804 14.2384 49.5399 14.2393C49.2369 14.2384 48.9835 14.1485 48.7612 13.9646V13.9643C48.5402 13.7804 48.3793 13.5222 48.2791 13.1758L48.2446 13.0564L47.3091 13.4439L47.217 13.482L47.2449 13.5771C47.4128 14.1458 47.7228 14.5857 48.1693 14.878C48.6068 15.1651 49.066 15.3135 49.5399 15.313V15.2023" fill="white"/>
<path d="M54.3341 12.3351H56.659L55.5167 9.2058H55.4776L54.3341 12.3351ZM52.3527 15.0471L54.9893 8.11077H56.005L58.6413 15.0471H57.6451L56.9716 13.1676H54.0324L53.3479 15.0471H52.3527" fill="white"/>
<path d="M54.3341 12.3351V12.4458H56.8182L55.5949 9.09507H55.4776H55.3991L54.1749 12.4458H54.3341V12.3351L54.4391 12.3728L55.5821 9.24342L55.4776 9.20578V9.31649H55.5167V9.20578L55.4117 9.24342L56.4994 12.2244H54.3341V12.3351L54.4391 12.3728L54.3341 12.3351ZM52.3527 15.0471L52.4572 15.0864L55.0664 8.22145H55.9274L58.4799 14.9364H57.7241L57.0505 13.0568H53.954L53.2695 14.9364H52.3527V15.0471L52.4572 15.0864L52.3527 15.0471V15.1578H53.348H53.426L54.1104 13.2783H56.8927L57.5662 15.1578H58.6413H58.8026L56.0822 8.00003H54.9893H54.9117L52.1914 15.1578H52.3527V15.0471" fill="white"/>
<path d="M60.4409 14.1947H62.2479C62.5932 14.1947 62.8722 14.0753 63.0879 13.8361C63.3024 13.5975 63.4092 13.3363 63.4092 13.0517C63.4092 12.7676 63.2994 12.5076 63.0779 12.2719C62.8569 12.0362 62.567 11.9182 62.2083 11.9182H60.4409V14.1947ZM60.4409 11.0853H62.0722C62.4101 11.0853 62.6826 10.9742 62.8874 10.751C63.0923 10.5282 63.1947 10.2839 63.1947 10.0193C63.1947 9.75503 63.0959 9.51291 62.897 9.29271C62.6991 9.0735 62.4362 8.96368 62.1114 8.96368H60.4409V11.0853ZM59.5428 15.0471V8.11077H62.0722C62.6193 8.11077 63.0923 8.29067 63.4921 8.64882C63.8932 9.0073 64.0928 9.45755 64.0928 9.99981C64.0928 10.3294 64.007 10.6203 63.8348 10.8725C63.6626 11.1242 63.4324 11.3145 63.146 11.4438V11.4823C63.4913 11.5986 63.7746 11.7989 63.9956 12.0829C64.2171 12.3676 64.3283 12.6962 64.3283 13.0711C64.3283 13.639 64.1182 14.1108 63.6983 14.4857C63.2777 14.8593 62.7815 15.0471 62.2083 15.0471H59.5428Z" fill="white"/>
<path d="M60.441 14.1947V14.3054H62.2479C62.6189 14.3066 62.9363 14.1721 63.1712 13.9101C63.401 13.6553 63.5218 13.3644 63.5209 13.0516C63.5218 12.7385 63.3967 12.4475 63.16 12.1963C62.9184 11.9377 62.591 11.8061 62.2083 11.8075H60.3293V14.3054H60.441V14.1947H60.5526V12.0289H62.2083C62.5431 12.0302 62.7955 12.1348 62.9965 12.3472C63.2023 12.5677 63.2972 12.7965 63.2977 13.0516C63.2972 13.3081 63.2044 13.5391 63.0047 13.7626V13.7622C62.8082 13.9784 62.5675 14.0827 62.2479 14.084H60.441V14.1947H60.5526H60.441ZM60.441 11.0853V11.196H62.0723C62.4341 11.1972 62.7445 11.0722 62.9699 10.8258C63.19 10.5879 63.3073 10.3129 63.3064 10.0193C63.3073 9.72689 63.194 9.45443 62.9803 9.21873C62.7619 8.97528 62.4611 8.85161 62.1114 8.85294H60.3293V11.196H60.441V11.0853H60.5526V9.07436H62.1114C62.4114 9.07558 62.636 9.17123 62.8142 9.36664C62.9973 9.57079 63.0824 9.78313 63.0832 10.0193C63.0824 10.255 62.9947 10.469 62.8051 10.6766C62.6207 10.8751 62.3861 10.9733 62.0723 10.9746H60.441V11.0853H60.5526H60.441ZM59.5429 15.0471H59.6545V8.22145H62.0723C62.5949 8.22234 63.0357 8.39017 63.4175 8.73094C63.7969 9.0717 63.98 9.48476 63.9812 9.99979C63.9808 10.3108 63.9015 10.5767 63.7424 10.8102C63.581 11.0454 63.3692 11.221 63.0998 11.343L63.0344 11.3724V11.4823V11.5614L63.1098 11.5869C63.4359 11.6976 63.6988 11.8832 63.9076 12.1509C64.1138 12.4168 64.2163 12.7178 64.2167 13.0711C64.2154 13.6117 64.0214 14.0464 63.6238 14.4031L63.6217 14.4048L63.6238 14.4031C63.2214 14.7599 62.7571 14.9355 62.2083 14.9364H59.5429V15.0471H59.6545H59.5429V15.1578H62.2083C62.8064 15.1587 63.3338 14.9593 63.7729 14.5679C64.2145 14.1757 64.4412 13.6662 64.4399 13.0711C64.4404 12.6745 64.3204 12.3182 64.0841 12.0155C63.8504 11.7145 63.5467 11.5 63.1817 11.3771L63.146 11.4823H63.2576V11.4438H63.146L63.1922 11.5445C63.4957 11.4079 63.7436 11.2029 63.9268 10.9343C64.1125 10.664 64.2049 10.3483 64.2045 9.99979C64.2058 9.43063 63.9899 8.94284 63.5671 8.56664C63.149 8.19078 62.6442 7.9997 62.0723 8.00003H59.4313V15.1578H59.5429V15.0471Z" fill="white"/>
<path d="M66.7564 12.3351H69.081L67.9388 9.2058H67.9L66.7564 12.3351ZM64.7751 15.0471L67.4118 8.11077H68.427L71.0637 15.0471H70.0675L69.394 13.1676H66.4543L65.7703 15.0471H64.7751" fill="white"/>
<path d="M66.7565 12.3351V12.4458H69.2401L68.0172 9.09507H67.9001H67.8215L66.5974 12.4458H66.7565V12.3351L66.8616 12.3728L68.0046 9.24342L67.9001 9.20578V9.31649H67.9388V9.20578L67.8342 9.24342L68.9224 12.2244H66.7565V12.3351L66.8616 12.3728L66.7565 12.3351ZM64.7751 15.0471L64.8797 15.0864L67.4889 8.22145H68.3499L70.9024 14.9364H70.1464L69.4729 13.0568H66.3763L65.6919 14.9364H64.7751V15.0471L64.8797 15.0864L64.7751 15.0471V15.1578H65.7703H65.8484L66.5329 13.2783H69.3151L69.9886 15.1578H71.0637H71.225L68.5046 8.00003H67.4118H67.3341L64.6138 15.1578H64.7751V15.0471" fill="white"/>
<path d="M71.9662 15.0471V8.11077H72.8643V11.0853H76.3606V8.11077H77.2587V15.0471H76.3606V11.9182H72.8643V15.0471H71.9662Z" fill="white"/>
<path d="M71.9661 15.0471H72.0777V8.22145H72.7526V11.196H76.4721V8.22145H77.147V14.9364H76.4721V11.8075H72.7526V14.9364H71.9661V15.0471H72.0777H71.9661V15.1578H72.8642H72.9758V12.0289H76.2489V15.1578H77.2586H77.3702V8.00003H76.3605H76.2489V10.9746H72.9758V8.00003H71.9661H71.8545V15.1578H71.9661V15.0471Z" fill="white"/>
<path d="M81.0732 15.0471H80.1751V8.96368H78.222V8.11077H83.0263V8.96368H81.0732V15.0471Z" fill="white"/>
<path d="M81.0732 15.0471V14.9364H80.2867V8.85294H78.3337V8.22145H82.9147V8.85294H80.9616V15.0471H81.0732V14.9364V15.0471H81.1848V9.07436H83.1379V8.11074V8.00003H78.1105V8.96365V9.07436H80.0635V15.1578H81.0732H81.1848V15.0471H81.0732Z" fill="white"/>
<path d="M84.7701 12.3351H87.095L85.9523 9.2058H85.9136L84.7701 12.3351ZM82.7887 15.0471L85.4253 8.11077H86.4406L89.0772 15.0471H88.0812L87.4075 13.1676H84.4684L83.784 15.0471H82.7887Z" fill="white"/>
<path d="M84.7701 12.3351V12.4458H87.2537L86.0309 9.09507H85.9136H85.8351L84.611 12.4458H84.7701V12.3351L84.8751 12.3728L86.0182 9.24342L85.9136 9.20578V9.31649H85.9523V9.20578L85.8478 9.24342L86.9359 12.2244H84.7701V12.3351L84.8751 12.3728L84.7701 12.3351ZM82.7887 15.0471L82.8928 15.0864L85.502 8.22145H86.3639L88.916 14.9364H88.1601L87.4866 13.0568H84.3899L83.7055 14.9364H82.7887V15.0471L82.8928 15.0864L82.7887 15.0471V15.1578H83.784H83.862L84.5465 13.2783H87.3286L88.0023 15.1578H89.0772H89.2386L86.5183 8.00003H85.4253H85.3477L82.6273 15.1578H82.7887V15.0471" fill="white"/>
<path d="M94.443 11.8698V15.0471H93.5449V11.8698H93.5052L90.7905 15.0471H89.6191V15.0086L92.5684 11.6566L89.7355 8.14974V8.11077H90.8298L93.5052 11.4823H93.5449V8.11077H94.443V11.4823H94.4817L97.1576 8.11077H98.2518V8.14974L95.4195 11.6566L98.3682 15.0086V15.0471H97.1968L94.4817 11.8698H94.443" fill="white"/>
<path d="M94.443 11.8698H94.3314V14.9364H93.6566V11.7591H93.5052H93.4538L90.7387 14.9364H89.6192V15.0471H89.7308V15.0085H89.6192L89.7029 15.0816L92.7135 11.6596L89.8472 8.11119V8.11074H89.7356V8.22145H90.7757L93.4512 11.593H93.545H93.6566V8.22145H94.3314V11.593H94.4818H94.5362L97.2117 8.22145H98.2518V8.11074H98.1402V8.11119L95.2739 11.6596L98.2845 15.0816L98.3682 15.0085H98.2566V15.0471H98.3682V14.9364H97.2483L94.5336 11.7591H94.443H94.3314V11.8698H94.443V11.9805H94.4818V11.8698L94.3967 11.9411L97.145 15.1578H98.3682H98.4798V15.0085V14.967L95.5646 11.6535L98.3634 8.18868V8.11074V8.00003H97.1577H97.1035L94.3941 11.4134L94.4818 11.4823V11.3716H94.443V11.4823H94.5546V8.00003H93.545H93.4333V11.4823H93.545V11.3716H93.5052V11.4823L93.5933 11.4134L90.8839 8.00003H89.7356H89.624V8.14971V8.18868L92.4228 11.6535L89.5076 14.967V15.0471V15.1578H90.7906H90.8425L93.5907 11.9411L93.5052 11.8698V11.9805H93.545V11.8698H93.4333V15.1578H94.443H94.5546V11.8698H94.443V11.9805V11.8698" fill="white"/>
<path d="M104.615 8.11077V15.0471H103.716V10.7263L103.755 9.39002H103.716L100.161 15.0471H99.224V8.11077H100.122V12.1703L100.084 13.5071H100.122L103.522 8.11077H104.615Z" fill="white"/>
<path d="M104.615 8.11074H104.503V14.9364H103.828V10.7276L103.867 9.39299L103.87 9.27929H103.716H103.655L100.099 14.9364H99.3356V8.22145H100.011V12.1695L99.9726 13.504L99.9691 13.6178H100.122H100.184L103.583 8.22145H104.615V8.11074H104.503H104.615V8.00003H103.522H103.46L100.028 13.4482L100.122 13.5071V13.3964H100.084V13.5071L100.195 13.5101L100.234 12.1734V12.1716V8.00003H99.224H99.1124V15.1578H100.161H100.223L103.811 9.44834L103.716 9.39V9.50071H103.755V9.39L103.645 9.38701L103.605 10.7228V10.7251V15.1578H104.615H104.726V8.00003H104.615V8.11074" fill="white"/>
<path d="M108.429 15.0471H107.531V8.96368H105.578V8.11077H110.382V8.96368H108.429V15.0471Z" fill="white"/>
<path d="M108.429 15.0471V14.9364H107.642V8.85294H105.689V8.22145H110.271V8.85294H108.318V15.0471H108.429V14.9364V15.0471H108.541V9.07436H110.494V8.11074V8.00003H105.466V8.96365V9.07436H107.419V15.1578H108.429H108.541V15.0471H108.429Z" fill="white"/>
<path d="M116.769 8.11077V15.0471H115.871V10.7263L115.91 9.39002H115.871L112.315 15.0471H111.379V8.11077H112.276V12.1703L112.238 13.5071H112.276L115.676 8.11077H116.769Z" fill="white"/>
<path d="M116.769 8.11074H116.658V14.9364H115.983V10.7276L116.022 9.39299L116.025 9.27929H115.871H115.808L112.254 14.9364H111.491V8.22145H112.165V12.1695L112.127 13.504L112.123 13.6178H112.276H112.339L115.738 8.22145H116.769V8.11074H116.658H116.769V8.00003H115.676H115.614L112.181 13.4482L112.276 13.5071V13.3964H112.238V13.5071L112.35 13.5101L112.388 12.1734V12.1716V8.00003H111.379H111.267V15.1578H112.315H112.378L115.966 9.44834L115.871 9.39V9.50071H115.91V9.39L115.798 9.38701L115.759 10.7228V10.7251V15.1578H116.769H116.881V8.00003H116.769V8.11074" fill="white"/>
<path d="M122.16 15.2023C121.709 15.2023 121.274 15.0626 120.851 14.7854C120.428 14.5082 120.134 14.0947 119.972 13.5459L120.792 13.2065C120.896 13.5684 121.068 13.8491 121.309 14.0493C121.55 14.2501 121.834 14.3499 122.16 14.3499C122.524 14.3499 122.837 14.2365 123.101 14.0108C123.365 13.7846 123.497 13.5035 123.497 13.1675C123.497 12.8385 123.362 12.5613 123.092 12.3351C122.821 12.1094 122.497 11.9956 122.121 11.9956H121.544V11.1627H122.052C122.403 11.1627 122.694 11.0658 122.925 10.8725C123.156 10.6783 123.273 10.4206 123.273 10.0971C123.273 9.79353 123.16 9.55439 122.935 9.38002C122.711 9.20577 122.432 9.11842 122.101 9.11842C121.527 9.11842 121.141 9.40648 120.939 9.98074L120.109 9.63222C120.238 9.27717 120.47 8.96054 120.802 8.68288C121.134 8.40533 121.566 8.26606 122.101 8.26606C122.699 8.26606 123.197 8.43899 123.595 8.78452C123.991 9.13004 124.19 9.56735 124.19 10.0971C124.19 10.7358 123.891 11.2106 123.292 11.5207V11.5601C123.617 11.695 123.886 11.9022 124.097 12.1793C124.309 12.457 124.414 12.787 124.414 13.1675C124.414 13.7557 124.197 14.2417 123.76 14.6258C123.325 15.0099 122.79 15.2023 122.16 15.2023" fill="white"/>
<path d="M122.16 15.2023V15.0916C121.734 15.0912 121.321 14.9607 120.912 14.6933C120.513 14.4308 120.237 14.0438 120.08 13.5149L119.972 13.546L120.015 13.6481L120.835 13.3086L120.792 13.2066L120.684 13.2368C120.794 13.6152 120.977 13.918 121.238 14.1342C121.497 14.3513 121.811 14.4611 122.16 14.4607C122.547 14.4616 122.892 14.3379 123.174 14.0948C123.46 13.8522 123.61 13.533 123.608 13.1676C123.61 12.8078 123.454 12.4922 123.163 12.2504C122.874 12.0078 122.52 11.884 122.121 11.8849H121.655V11.2735H122.052C122.423 11.2739 122.745 11.1692 122.998 10.9568C123.254 10.7441 123.385 10.4461 123.384 10.0972C123.386 9.76669 123.256 9.48559 123.005 9.29318L123.001 9.29108L123.005 9.29318C122.758 9.10165 122.451 9.00733 122.101 9.00777C121.487 9.00168 121.039 9.33769 120.834 9.94449L120.939 9.9808L120.982 9.87873L120.152 9.53021L120.109 9.63228L120.214 9.66982C120.336 9.33514 120.555 9.03545 120.873 8.76731V8.76775C121.183 8.50957 121.585 8.37772 122.101 8.37683C122.678 8.37772 123.144 8.54157 123.521 8.86805V8.86761C123.895 9.19587 124.077 9.59509 124.078 10.0972C124.075 10.7004 123.809 11.1233 123.24 11.423L123.18 11.4542V11.5602V11.6337L123.249 11.6623C123.557 11.7902 123.808 11.984 124.008 12.246C124.204 12.5047 124.303 12.8069 124.303 13.1676C124.302 13.7286 124.101 14.1766 123.687 14.5433C123.27 14.9087 122.768 15.0907 122.16 15.0916V15.2023V15.313C122.813 15.3139 123.379 15.1111 123.835 14.7089C124.293 14.3067 124.528 13.783 124.526 13.1676C124.527 12.7667 124.413 12.4099 124.187 12.1129C123.963 11.8205 123.679 11.5999 123.335 11.4577L123.292 11.5602H123.403V11.5208H123.292L123.344 11.619C123.971 11.2981 124.306 10.7718 124.302 10.0972C124.303 9.54017 124.087 9.06445 123.669 8.70155V8.7011C123.25 8.33698 122.72 8.15497 122.101 8.15541C121.548 8.15497 121.085 8.30066 120.729 8.59825V8.59869C120.386 8.88621 120.141 9.21923 120.004 9.59464L119.967 9.69318L120.895 10.0829L121.005 10.1292L121.044 10.0171C121.241 9.47486 121.567 9.23572 122.101 9.22963C122.413 9.23008 122.663 9.31001 122.866 9.46744C123.065 9.62321 123.159 9.81994 123.161 10.0972C123.159 10.3946 123.059 10.6126 122.854 10.7878C122.644 10.9625 122.383 11.0511 122.052 11.052H121.544H121.432V11.9956V12.1063H122.121C122.475 12.1072 122.768 12.2111 123.019 12.4199C123.268 12.6301 123.384 12.8692 123.385 13.1676C123.384 13.4747 123.27 13.7177 123.028 13.9271C122.784 14.1359 122.5 14.2384 122.16 14.2393C121.856 14.2384 121.603 14.1485 121.381 13.9646V13.9643C121.16 13.7804 120.999 13.5222 120.899 13.1758L120.864 13.0564L119.929 13.4439L119.837 13.482L119.865 13.5771C120.033 14.1458 120.343 14.5857 120.789 14.878C121.227 15.1651 121.686 15.3135 122.16 15.313V15.2023" fill="white"/>
<path d="M24.991 21.5988L13.1094 34.1088C13.1098 34.1114 13.1107 34.1136 13.1112 34.1161C13.4755 35.4745 14.7263 36.4747 16.2107 36.4747C16.804 36.4747 17.3612 36.3156 17.8389 36.0362L17.8769 36.0142L31.2511 28.3585L24.991 21.5988" fill="#EB3131"/>
<path d="M37.0117 19.4686L37.0003 19.4609L31.2263 16.1404L24.7212 21.8826L31.249 28.3572L36.9925 25.0698C37.9995 24.5305 38.683 23.4774 38.683 22.2631C38.683 21.0575 38.0086 20.0096 37.0117 19.4686" fill="#F6B60B"/>
<path d="M13.109 10.3655C13.0375 10.6267 13 10.9004 13 11.1846V33.2902C13 33.5739 13.0371 33.8485 13.1094 34.1088L25.3999 21.9189L13.109 10.3655Z" fill="#5778C5"/>
<path d="M25.0787 22.2372L31.2286 16.1383L17.8695 8.45496C17.3839 8.16646 16.8172 7.99996 16.2107 7.99996C14.7263 7.99996 13.4739 9.00197 13.1095 10.362C13.109 10.3633 13.109 10.3642 13.109 10.3654L25.0787 22.2372Z" fill="#3BAD49"/>
</svg>
