<svg width="100" height="100" viewBox="0 0 100 100" fill="none" xmlns="http://www.w3.org/2000/svg">
<g clip-path="url(#clip0_3_8730)">
<rect width="100" height="100" rx="20" fill="white"/>
<path fill-rule="evenodd" clip-rule="evenodd" d="M100 0H0V100H100V0ZM50.3203 41.2019C45.291 41.2019 41.215 45.2776 41.215 50.304C41.215 55.3303 45.291 59.406 50.3203 59.406C55.3497 59.406 59.4279 55.3303 59.4279 50.304C59.4279 45.2776 55.3497 41.2019 50.3203 41.2019ZM50.3203 64.3242C42.5723 64.3242 36.2917 58.0474 36.2917 50.304C36.2917 42.5606 42.5723 36.2837 50.3203 36.2837C58.0684 36.2837 64.349 42.5606 64.349 50.304C64.349 58.0474 58.0684 64.3242 50.3203 64.3242ZM62.1777 37.5483C61.8177 37.0094 61.6257 36.3758 61.6259 35.7278C61.6267 34.8592 61.9724 34.0264 62.5871 33.4123C63.2018 32.7982 64.0352 32.453 64.9044 32.4526H64.9057C65.5541 32.4529 66.1879 32.6453 66.7269 33.0055C67.2659 33.3658 67.6859 33.8777 67.9338 34.4765C68.1817 35.0753 68.2463 35.7341 68.1196 36.3696C67.9928 37.0051 67.6803 37.5888 67.2217 38.0469C66.763 38.5049 66.1787 38.8167 65.5427 38.9429C64.9067 39.069 64.2475 39.0039 63.6486 38.7557C63.0496 38.5074 62.5378 38.0873 62.1777 37.5483ZM34.2094 71.5895C35.1715 71.9641 36.6193 72.4075 39.2829 72.5287C42.1618 72.6611 43.0245 72.6875 50.3203 72.6875C57.6162 72.6875 58.4813 72.6611 61.361 72.5287C64.0247 72.4077 65.4729 71.9643 66.4345 71.5895C67.7101 71.0932 68.6215 70.5012 69.577 69.5471C70.5326 68.593 71.124 67.6835 71.6206 66.4087C71.9932 65.4472 72.4391 64.0003 72.5604 61.3383C72.6929 58.4578 72.7193 57.5956 72.7193 50.3042C72.7193 43.0127 72.6929 42.1506 72.5604 39.2701C72.4393 36.6081 71.9957 35.1607 71.6206 34.1996C71.124 32.9249 70.5339 32.014 69.577 31.059C68.6202 30.1041 67.7101 29.5108 66.4345 29.0167C65.47 28.6454 64.0247 28.1987 61.361 28.0774C58.4789 27.9473 57.6129 27.9186 50.3203 27.9186C43.0278 27.9186 42.1627 27.9451 39.2829 28.0774C36.6193 28.1985 35.1711 28.6419 34.2094 29.0167C32.9317 29.5108 32.0225 30.1027 31.0669 31.059C30.1114 32.0153 29.5199 32.9249 29.0234 34.1996C28.6518 35.1636 28.2049 36.6081 28.0836 39.2701C27.9533 42.1506 27.9247 43.0127 27.9247 50.3042C27.9247 57.5956 27.9511 58.4602 28.0836 61.3383C28.2046 64.0003 28.6483 65.4476 29.0234 66.4087C29.5178 67.6835 30.1101 68.5922 31.0669 69.5471C32.0238 70.5021 32.9339 71.0932 34.2094 71.5895ZM32.4253 24.4336C34.1609 23.7586 36.1483 23.2977 39.0567 23.1654C41.9712 23.0308 42.9032 23 50.3225 23C57.7419 23 58.6732 23.033 61.5862 23.1654C64.4924 23.2955 66.4787 23.7586 68.2176 24.4336C70.0118 25.1306 71.5369 26.0633 73.055 27.5829C74.5732 29.1025 75.5069 30.6244 76.2063 32.4196C76.8816 34.1542 77.3428 36.1402 77.4752 39.0471C77.6077 41.9583 77.6385 42.8891 77.6385 50.304C77.6385 57.7188 77.6077 58.6474 77.4752 61.5608C77.345 64.4675 76.8816 66.4526 76.2063 68.1883C75.5069 69.9836 74.5756 71.5078 73.055 73.025C71.5345 74.5422 70.0118 75.4754 68.2154 76.1744C66.4787 76.8493 64.4926 77.3102 61.584 77.4426C58.671 77.5771 57.7397 77.6079 50.3203 77.6079C42.901 77.6079 41.9712 77.5749 39.0567 77.4426C36.1483 77.3102 34.1642 76.8493 32.4253 76.1744C30.6278 75.4754 29.106 74.5416 27.5857 73.025C26.0653 71.5084 25.1319 69.9836 24.4344 68.1883C23.7591 66.4526 23.2979 64.4677 23.1655 61.5608C23.0308 58.6496 23 57.7188 23 50.304C23 42.8891 23.0308 41.9583 23.1655 39.0471C23.2979 36.1404 23.7591 34.1553 24.4344 32.4196C25.1319 30.6233 26.0651 29.1001 27.5857 27.5829C29.1062 26.0657 30.6278 25.1306 32.4253 24.4336Z" fill="url(#paint0_linear_3_8730)"/>
</g>
<defs>
<linearGradient id="paint0_linear_3_8730" x1="98.078" y1="100" x2="-1.922" y2="-2.69172e-06" gradientUnits="userSpaceOnUse">
<stop stop-color="#FBE18A"/>
<stop offset="0.21" stop-color="#FCBB45"/>
<stop offset="0.38" stop-color="#F75274"/>
<stop offset="0.52" stop-color="#D53692"/>
<stop offset="0.74" stop-color="#8F39CE"/>
<stop offset="1" stop-color="#5B4FE9"/>
</linearGradient>
<clipPath id="clip0_3_8730">
<rect width="100" height="100" rx="20" fill="white"/>
</clipPath>
</defs>
</svg>
