<svg width="151" height="45" viewBox="0 0 151 45" fill="none" xmlns="http://www.w3.org/2000/svg">
<path d="M140.342 0H10.6887C10.2659 0 9.87342 0 9.45071 0C9.11857 0 8.75624 0 8.4241 0C7.66926 0.029994 6.91442 0.059988 6.18976 0.209958C5.43491 0.329934 4.74045 0.569886 4.07619 0.89982C3.41192 1.22975 2.80804 1.67966 2.26455 2.21956C1.72106 2.75945 1.29833 3.35933 0.936006 4.0192C0.573678 4.70906 0.362324 5.39892 0.241548 6.11878C0.120772 6.86863 0.0603806 7.58848 0.0301866 8.33833C0.0301866 8.66827 0.030194 9.0282 0 9.35813C0 9.74805 0 10.168 0 10.5579V34.3731C0 34.793 0 35.183 0 35.5729C0 35.9028 -7.37202e-06 36.2628 0.0301866 36.5927C0.0603806 37.3425 0.0905782 38.0924 0.241548 38.8122C0.362324 39.5621 0.603872 40.252 0.936006 40.9118C1.26814 41.5717 1.72106 42.1716 2.26455 42.7115C2.80804 43.2514 3.41192 43.6713 4.07619 44.0312C4.77065 44.3911 5.46511 44.6011 6.18976 44.7211C6.94461 44.841 7.69945 44.901 8.4241 44.931C8.75624 44.931 9.11857 44.931 9.45071 44.931C9.87342 44.931 10.2659 44.931 10.6887 44.931H140.342C140.734 44.931 141.157 44.931 141.549 44.931C141.881 44.931 142.244 44.931 142.576 44.931C143.331 44.901 144.086 44.871 144.81 44.7211C145.565 44.6011 146.26 44.3611 146.954 44.0312C147.618 43.7013 148.222 43.2514 148.766 42.7115C149.309 42.2016 149.732 41.5717 150.094 40.9118C150.426 40.252 150.668 39.5321 150.789 38.8122C150.94 38.0624 150.97 37.3425 151 36.5927C151 36.2628 151 35.9028 151 35.5729C151 35.183 151 34.7631 151 34.3731V10.5879C151 10.168 151 9.77805 151 9.38812C151 9.05819 151 8.69826 151 8.36833C150.97 7.61848 150.94 6.86863 150.789 6.14877C150.668 5.39892 150.426 4.70906 150.094 4.04919C149.762 3.38932 149.309 2.78944 148.766 2.24955C148.252 1.70966 147.618 1.28974 146.954 0.929814C146.26 0.59988 145.565 0.359928 144.81 0.239952C144.086 0.119976 143.331 0.059988 142.576 0.029994C142.244 0.029994 141.881 0.029994 141.549 0.029994C141.157 0 140.764 0 140.342 0Z" fill="#B6B6B6"/>
<path d="M9.48092 44.0311C9.14879 44.0311 8.81666 44.0311 8.48452 44.0311C7.85045 44.0011 7.12579 43.9712 6.40113 43.8512C5.70667 43.7312 5.1028 43.5212 4.55931 43.2513C3.98562 42.9514 3.44213 42.5914 2.98922 42.1115C2.53631 41.6616 2.14379 41.1517 1.84185 40.5518C1.53991 39.982 1.35875 39.3821 1.23797 38.7222C1.087 37.9724 1.05682 37.2225 1.05682 36.6526C1.05682 36.4127 1.02661 35.6328 1.02661 35.6328V9.38807C1.02661 9.38807 1.02662 8.60822 1.05682 8.39827C1.05682 7.82838 1.1172 7.04854 1.23797 6.32868C1.35875 5.63882 1.57011 5.03894 1.84185 4.46905C2.14379 3.89916 2.50612 3.35927 2.98922 2.90936C3.44213 2.45945 3.98562 2.06953 4.55931 1.76959C5.13299 1.46965 5.73687 1.28969 6.40113 1.16971C7.15598 1.04973 7.91084 0.989746 8.48452 0.989746H9.48092H141.58H142.606C143.18 0.989746 143.935 1.04973 144.689 1.16971C145.354 1.28969 145.958 1.49964 146.562 1.76959C147.135 2.06953 147.649 2.42946 148.132 2.90936C148.585 3.35927 148.977 3.86917 149.279 4.46905C149.581 5.03894 149.762 5.63882 149.883 6.29869C150.004 6.98855 150.064 7.7084 150.064 8.39827C150.064 8.69821 150.064 9.05813 150.064 9.38807C150.064 9.80798 150.064 10.1979 150.064 10.5878V34.4031C150.064 34.793 150.064 35.2129 150.064 35.6028C150.064 35.9628 150.064 36.2927 150.064 36.6226C150.034 37.2825 150.004 38.0023 149.883 38.6922C149.762 39.3821 149.581 39.982 149.279 40.5518C148.977 41.1217 148.585 41.6616 148.132 42.0815C147.679 42.5314 147.135 42.9214 146.562 43.2213C145.988 43.5212 145.384 43.7012 144.689 43.8212C143.965 43.9412 143.24 43.9712 142.606 44.0011C142.274 44.0011 141.942 44.0011 141.61 44.0011H140.402L9.48092 44.0311Z" fill="black"/>
<path fill-rule="evenodd" clip-rule="evenodd" d="M30.5261 8.24835H17.9956C12.0776 8.24835 9.93384 10.4079 9.93384 16.2568V28.7043C9.93384 34.5831 12.1078 36.7127 17.9956 36.7127H30.5261C36.4441 36.7127 38.5879 34.5531 38.5879 28.7043V16.2568C38.6181 10.4079 36.4441 8.24835 30.5261 8.24835Z" fill="#6486FF"/>
<path fill-rule="evenodd" clip-rule="evenodd" d="M30.5261 8.24835H17.9956C12.0776 8.24835 9.93384 10.4079 9.93384 16.2568V28.7043C9.93384 34.5831 12.1078 36.7127 17.9956 36.7127H30.5261C36.4441 36.7127 38.5879 34.5531 38.5879 28.7043V16.2568C38.6181 10.4079 36.4441 8.24835 30.5261 8.24835Z" fill="url(#paint0_linear_7_6634)" fill-opacity="0.3"/>
<path d="M49.6738 15.0879C51.0449 15.0879 52.082 14.3496 52.4688 13.1191L51.4316 12.75C51.168 13.6641 50.5527 14.1211 49.6562 14.1211C48.4082 14.1211 47.6348 13.1895 47.6348 11.6602C47.6348 10.166 48.4434 9.19922 49.6562 9.19922C50.5527 9.19922 51.168 9.65625 51.4316 10.5703L52.4688 10.2012C52.082 8.93555 51.0449 8.23242 49.6738 8.23242C47.793 8.23242 46.4922 9.62109 46.4922 11.6602C46.4922 13.7344 47.7402 15.0879 49.6738 15.0879ZM59.3594 8.32031H53.8047V15H54.9121V9.33984H58.252V15H59.3594V8.32031ZM64.1582 8.32031H61.3633V15H62.4707V12.4512H64.1582C65.6172 12.4512 66.5312 11.6602 66.5312 10.377C66.5312 9.11133 65.6172 8.32031 64.1582 8.32031ZM64.0176 11.502H62.4707V9.28711H64.0176C64.9316 9.28711 65.4062 9.65625 65.4062 10.3945C65.4062 11.1152 64.9316 11.502 64.0176 11.502ZM70.5742 15.0879C72.4727 15.0879 73.791 13.6992 73.791 11.6602C73.791 9.58594 72.5254 8.23242 70.5742 8.23242C68.6758 8.23242 67.3574 9.62109 67.3574 11.6602C67.3574 13.7344 68.623 15.0879 70.5742 15.0879ZM70.5742 14.1211C69.3086 14.1211 68.5 13.1367 68.5 11.6602C68.5 10.1836 69.3086 9.19922 70.5742 9.19922C71.8398 9.19922 72.6484 10.1836 72.6484 11.6602C72.6484 13.1367 71.8398 14.1211 70.5742 14.1211ZM78.1328 10.9395H76.3926V9.30469H79.9434V8.32031H75.2852V15H78.1328C79.5742 15 80.4883 14.209 80.4883 12.9609C80.4883 11.7129 79.5742 10.9395 78.1328 10.9395ZM77.9922 14.0508H76.3926V11.8535H77.9922C78.9062 11.8535 79.3457 12.2402 79.3457 12.9609C79.3457 13.6816 78.9062 14.0508 77.9922 14.0508ZM86.0781 8.32031L84.4258 12.6973L82.1582 8.32031H80.8926L83.9512 13.7871C83.8105 14.0859 83.582 14.1562 83.3535 14.1562C82.9668 14.1562 82.791 13.8926 82.7559 13.3652L81.8242 13.5938C81.8594 14.4551 82.4219 15.0879 83.3184 15.0879C84.1973 15.0879 84.7246 14.4902 85.0586 13.6465L87.2559 8.32031H86.0781ZM91.2812 7.82812C92.1953 7.82812 92.793 7.37109 92.8809 6.58008L92.0547 6.43945C92.002 6.87891 91.7207 7.125 91.2812 7.125C90.8418 7.125 90.5605 6.87891 90.5078 6.43945L89.6816 6.58008C89.7695 7.37109 90.3672 7.82812 91.2812 7.82812ZM92.9863 8.32031L89.5938 13.2773V8.32031H88.4863V15H89.5586L92.9688 10.0254V15H94.0762V8.32031H92.9863Z" fill="white"/>
<path d="M60.0918 20.8672L57.6309 29.4219L55.1992 20.8672H53.2363L50.834 29.3633L48.4316 20.8672H46.5273L49.75 32H51.6836L54.2031 23.2695L56.752 32H58.6855L61.9082 20.8672H60.0918ZM65.0512 30.3594V27.0781H69.5629V25.4961H65.0512V22.5078H70.8813V20.8672H63.2055V32H71.0277V30.3594H65.0512ZM79.4441 26.3164C80.3523 25.8184 80.8504 24.9395 80.8504 23.8262C80.8504 22.0098 79.5027 20.8672 77.3934 20.8672H72.3836V32H77.4813C79.7078 32 81.0555 30.8281 81.0555 28.9531C81.0555 27.7227 80.4695 26.7852 79.4441 26.3164ZM77.1004 22.4492C78.3895 22.4492 79.034 22.9473 79.034 23.9727C79.034 25.0273 78.3895 25.5254 77.1004 25.5254H74.1707V22.4492H77.1004ZM77.1297 30.418H74.1707V27.0781H77.1297C78.5066 27.0781 79.2098 27.6348 79.2098 28.748C79.2098 29.8613 78.5066 30.418 77.1297 30.418ZM93.8453 20.8672L90.5055 30.0957L87.107 20.8672H85.1441L89.3336 32H91.5895L95.8082 20.8672H93.8453ZM96.9004 28.1621H103.668C103.727 27.957 103.727 27.8105 103.727 27.6055C103.727 24.8516 102.057 23.0645 99.4785 23.0645C96.9004 23.0645 95.1426 24.9102 95.1426 27.6055C95.1426 30.2129 96.7246 32.1465 99.625 32.1465C101.471 32.1465 102.701 31.4434 103.434 30.5645L102.232 29.5098C101.734 30.1543 100.914 30.6523 99.625 30.6523C98.0723 30.6523 97.1055 29.6855 96.9004 28.1621ZM99.4785 24.5293C100.797 24.5293 101.705 25.3789 101.939 26.8145H96.9297C97.1934 25.4082 98.1016 24.5293 99.4785 24.5293ZM109.594 23.0645C108.276 23.0645 107.162 23.6797 106.518 24.6172L106.401 23.2109H104.877V32H106.635V27.0781C106.635 25.6719 107.69 24.7637 109.096 24.7637C109.477 24.7637 109.887 24.793 110.268 24.8223V23.1523C110.034 23.0938 109.829 23.0645 109.594 23.0645ZM113.792 32.1465C115.989 32.1465 117.366 31.1211 117.366 29.5098C117.366 28.1328 116.458 27.4004 114.055 26.7852C112.561 26.4043 112.093 26.1113 112.093 25.5547C112.093 24.9395 112.766 24.5586 113.763 24.5586C114.7 24.5586 115.491 24.8809 116.194 25.4668L117.19 24.1484C116.223 23.4453 115.081 23.0645 113.85 23.0645C111.77 23.0645 110.393 24.0898 110.393 25.6719C110.393 27.0195 111.302 27.752 113.587 28.3379C115.198 28.7188 115.667 29.041 115.667 29.5977C115.667 30.2715 114.964 30.623 113.85 30.623C112.679 30.623 111.712 30.2422 110.979 29.5391L110.013 30.7988C110.979 31.6777 112.298 32.1465 113.792 32.1465ZM118.517 21.9805H120.45V20.2227H118.517V21.9805ZM118.605 32H120.363V23.2109H118.605V32ZM126.171 32.1465C128.808 32.1465 130.625 30.3008 130.625 27.6055C130.625 24.8516 128.867 23.0645 126.171 23.0645C123.535 23.0645 121.718 24.9102 121.718 27.6055C121.718 30.3594 123.476 32.1465 126.171 32.1465ZM126.171 30.6523C124.56 30.6523 123.505 29.4512 123.505 27.6055C123.505 25.7598 124.56 24.5586 126.171 24.5586C127.783 24.5586 128.838 25.7598 128.838 27.6055C128.838 29.4512 127.783 30.6523 126.171 30.6523ZM136.58 23.0645C135.262 23.0645 134.148 23.6504 133.475 24.5879L133.357 23.2109H131.834V32H133.592V26.9609C133.592 25.5547 134.705 24.5586 136.082 24.5586C137.283 24.5586 138.016 25.4082 138.016 26.9023V32H139.773V26.4336C139.773 24.4121 138.455 23.0645 136.58 23.0645Z" fill="white"/>
<g clip-path="url(#clip0_7_6634)">
<path d="M33.8438 15.0096C30.8066 15.0226 28.5488 15.4416 26.915 16.1655C25.6958 16.7055 25.2188 17.114 25.2188 18.4981V33.0077C27.0862 31.3204 28.7433 30.8479 35.2812 30.8479V15.0096H33.8438ZM15.1562 15.0096C18.1934 15.0226 20.4512 15.4416 22.085 16.1655C23.3042 16.7055 23.7812 17.114 23.7812 18.4981V33.0077C21.9138 31.3204 20.2567 30.8479 13.7188 30.8479V15.0096H15.1562Z" fill="white"/>
</g>
<defs>
<linearGradient id="paint0_linear_7_6634" x1="35.1749" y1="33.4137" x2="13.8447" y2="9.40057" gradientUnits="userSpaceOnUse">
<stop offset="0.0833333"/>
<stop offset="0.619792" stop-opacity="0"/>
</linearGradient>
<clipPath id="clip0_7_6634">
<rect width="23" height="18" fill="white" transform="translate(13 15)"/>
</clipPath>
</defs>
</svg>
